<?xml version="1.0" encoding="utf-8"?>
<!-- Generator: Adobe Illustrator 19.0.0, SVG Export Plug-In . SVG Version: 6.00 Build 0)  -->
<svg version="1.1" id="Layer_1" xmlns="http://www.w3.org/2000/svg" xmlns:xlink="http://www.w3.org/1999/xlink" x="0px" y="0px"
	 viewBox="0 0 96 96" style="enable-background:new 0 0 96 96;" xml:space="preserve">
<style type="text/css">
	.st0{fill:#333333;}
</style>
<g id="XMLID_1_">
	<path id="XMLID_5_" class="st0" d="M48,20.5c-15.2,0-27.5,12.3-27.5,27.5c0,15.2,12.3,27.5,27.5,27.5c15.2,0,27.5-12.3,27.5-27.5
		C75.5,32.8,63.2,20.5,48,20.5z M63.3,61.4c0,1.2-1,2.2-2.3,2.2H34.9c-1.3,0-2.3-1-2.3-2.2V34.9c0-1.2,1-2.2,2.3-2.2H61
		c1.3,0,2.3,1,2.3,2.2L63.3,61.4L63.3,61.4z"/>
	<path id="XMLID_6_" class="st0" d="M53.3,44.3c-2.5,0-3.6,1.4-4.2,2.3v0h0l0,0v-2h-4.6c0.1,1.3,0,13.9,0,13.9h4.6v-7.8
		c0-0.4,0-0.8,0.2-1.1c0.3-0.8,1.1-1.7,2.4-1.7c1.7,0,2.3,1.3,2.3,3.2v7.5h4.6v-8C58.6,46.3,56.4,44.3,53.3,44.3z"/>
	<path id="XMLID_7_" class="st0" d="M39.6,37.9c-1.6,0-2.6,1-2.6,2.4c0,1.3,1,2.4,2.6,2.4h0c1.6,0,2.6-1.1,2.6-2.4
		C42.2,38.9,41.2,37.9,39.6,37.9z"/>
	<rect id="XMLID_8_" x="37.3" y="44.6" class="st0" width="4.6" height="13.9"/>
</g>
</svg>
